<svg width="21" height="20" viewBox="0 0 21 20" fill="none" xmlns="http://www.w3.org/2000/svg">
<path d="M14.045 6.45505C13.1455 5.55558 11.8757 4.97357 10.5 4.97357C9.12433 4.97357 7.85449 5.52912 6.95502 6.45505C6.05555 7.35451 5.47354 8.62435 5.47354 10C5.47354 11.3757 6.05555 12.6455 6.95502 13.545C7.85449 14.4444 9.12433 15.0265 10.5 15.0265C11.8757 15.0265 13.1455 14.4709 14.045 13.545C14.9444 12.6455 15.5265 11.3757 15.5265 10C15.5265 8.62435 14.9709 7.35451 14.045 6.45505ZM13.0926 12.5926C12.4312 13.254 11.5053 13.6508 10.5 13.6508C9.4947 13.6508 8.56878 13.254 7.9074 12.5926C7.24603 11.9312 6.8492 11.0053 6.8492 10C6.8492 8.99472 7.24603 8.0688 7.9074 7.40742C8.56878 6.74605 9.4947 6.34923 10.5 6.34923C11.5053 6.34923 12.4312 6.74605 13.0926 7.40742C13.754 8.0688 14.1508 8.99472 14.1508 10C14.1508 11.0053 13.754 11.9312 13.0926 12.5926Z" fill="white"/>
<path d="M19.8122 9.3122H17.7751C17.4048 9.3122 17.0873 9.62966 17.0873 10C17.0873 10.3704 17.4048 10.6879 17.7751 10.6879H19.8122C20.1825 10.6879 20.5 10.3704 20.5 10C20.5 9.62966 20.1825 9.3122 19.8122 9.3122Z" fill="white"/>
<path d="M10.5 16.5873C10.1296 16.5873 9.81216 16.9048 9.81216 17.2751V19.3122C9.81216 19.6825 10.1296 20 10.5 20C10.8704 20 11.1878 19.6825 11.1878 19.3122V17.2751C11.1878 16.9048 10.8704 16.5873 10.5 16.5873Z" fill="white"/>
<path d="M17.5635 16.1111L16.1085 14.656C15.8704 14.3915 15.4207 14.3915 15.1561 14.656C14.8916 14.9206 14.8916 15.3439 15.1561 15.6084L16.6111 17.0634C16.8757 17.328 17.299 17.328 17.5635 17.0634C17.8281 16.7989 17.8281 16.3756 17.5635 16.1111Z" fill="white"/>
<path d="M10.5 0C10.1296 0 9.81216 0.317459 9.81216 0.687829V2.72486C9.81216 3.09523 10.1296 3.41269 10.5 3.41269C10.8704 3.41269 11.1878 3.09523 11.1878 2.72486V0.687829C11.1878 0.317459 10.8704 0 10.5 0Z" fill="white"/>
<path d="M17.5899 2.93653C17.3254 2.67198 16.9021 2.67198 16.6376 2.93653L15.1825 4.39155C14.918 4.6561 14.918 5.07938 15.1825 5.34393C15.4206 5.60848 15.8704 5.60848 16.1349 5.34393L17.5899 3.88891C17.8545 3.62436 17.8545 3.20108 17.5899 2.93653Z" fill="white"/>
<path d="M3.22487 9.3122H1.18783C0.81746 9.3122 0.5 9.62966 0.5 10C0.5 10.3704 0.791005 10.6879 1.18783 10.6879H3.22487C3.59524 10.6879 3.9127 10.3704 3.9127 10C3.9127 9.62966 3.59524 9.3122 3.22487 9.3122Z" fill="white"/>
<path d="M5.81746 14.656C5.57937 14.3915 5.12963 14.3915 4.86508 14.656L3.41005 16.1111C3.1455 16.3756 3.1455 16.7989 3.41005 17.0634C3.6746 17.328 4.09788 17.328 4.36243 17.0634L5.81746 15.6084C6.08201 15.3439 6.08201 14.9206 5.81746 14.656Z" fill="white"/>
<path d="M5.81746 4.39155L4.36243 2.93653C4.09788 2.67198 3.6746 2.67198 3.41005 2.93653C3.1455 3.20108 3.1455 3.62436 3.41005 3.88891L4.86508 5.34393C5.12963 5.60848 5.55291 5.60848 5.81746 5.34393C6.08201 5.07938 6.08201 4.6561 5.81746 4.39155Z" fill="white"/>
</svg>
